<svg width="44" height="46" viewBox="0 0 44 46" fill="none" xmlns="http://www.w3.org/2000/svg">
<g filter="url(#filter0_dd_0_2750)">
<path fill-rule="evenodd" clip-rule="evenodd" d="M4 2C2.89543 2 2 2.89543 2 4V40C2 41.1046 2.89543 42 4 42H40C41.1046 42 42 41.1046 42 40V4C42 2.89543 41.1046 2 40 2H4Z" fill="white"/>
</g>
<path fill-rule="evenodd" clip-rule="evenodd" d="M30.64 22.2046C30.64 21.5664 30.5827 20.9527 30.4764 20.3636H22V23.845H26.8436C26.635 24.97 26.0009 25.9232 25.0477 26.5614V28.8196H27.9564C29.6582 27.2527 30.64 24.9455 30.64 22.2046V22.2046Z" fill="#4285F4"/>
<path fill-rule="evenodd" clip-rule="evenodd" d="M22 31C24.43 31 26.4673 30.1941 27.9564 28.8195L25.0477 26.5614C24.2418 27.1014 23.2109 27.4204 22 27.4204C19.6559 27.4204 17.6718 25.8373 16.9641 23.71H13.9573V26.0418C15.4382 28.9832 18.4818 31 22 31V31Z" fill="#34A853"/>
<path fill-rule="evenodd" clip-rule="evenodd" d="M16.9641 23.71C16.7841 23.17 16.6818 22.5932 16.6818 22C16.6818 21.4068 16.7841 20.83 16.9641 20.29V17.9582H13.9573C13.3477 19.1732 13 20.5477 13 22C13 23.4523 13.3477 24.8268 13.9573 26.0418L16.9641 23.71V23.71Z" fill="#FBBC05"/>
<path fill-rule="evenodd" clip-rule="evenodd" d="M22 16.5795C23.3214 16.5795 24.5077 17.0336 25.4405 17.9255L28.0218 15.3441C26.4632 13.8918 24.4259 13 22 13C18.4818 13 15.4382 15.0168 13.9573 17.9582L16.9641 20.29C17.6718 18.1627 19.6559 16.5795 22 16.5795V16.5795Z" fill="#EA4335"/>
<defs>
<filter id="filter0_dd_0_2750" x="0" y="0" width="44" height="46" filterUnits="userSpaceOnUse" color-interpolation-filters="sRGB">
<feFlood flood-opacity="0" result="BackgroundImageFix"/>
<feColorMatrix in="SourceAlpha" type="matrix" values="0 0 0 0 0 0 0 0 0 0 0 0 0 0 0 0 0 0 127 0" result="hardAlpha"/>
<feOffset dy="2"/>
<feGaussianBlur stdDeviation="1"/>
<feColorMatrix type="matrix" values="0 0 0 0 0 0 0 0 0 0 0 0 0 0 0 0 0 0 0.24 0"/>
<feBlend mode="normal" in2="BackgroundImageFix" result="effect1_dropShadow_0_2750"/>
<feColorMatrix in="SourceAlpha" type="matrix" values="0 0 0 0 0 0 0 0 0 0 0 0 0 0 0 0 0 0 127 0" result="hardAlpha"/>
<feOffset/>
<feGaussianBlur stdDeviation="1"/>
<feColorMatrix type="matrix" values="0 0 0 0 0 0 0 0 0 0 0 0 0 0 0 0 0 0 0.12 0"/>
<feBlend mode="normal" in2="effect1_dropShadow_0_2750" result="effect2_dropShadow_0_2750"/>
<feBlend mode="normal" in="SourceGraphic" in2="effect2_dropShadow_0_2750" result="shape"/>
</filter>
</defs>
</svg>
